<?xml version="1.0" standalone="no"?>
<!DOCTYPE svg PUBLIC "-//W3C//DTD SVG 20010904//EN"
 "http://www.w3.org/TR/2001/REC-SVG-20010904/DTD/svg10.dtd">
<svg version="1.0" xmlns="http://www.w3.org/2000/svg"
 width="3000.000000pt" height="3000.000000pt" viewBox="0 0 3000.000000 3000.000000"
 preserveAspectRatio="xMidYMid meet">

<g transform="translate(0.000000,3000.000000) scale(0.100000,-0.100000)"
fill="#000000" stroke="none">
<path d="M600 15000 l0 -14340 14400 0 14400 0 0 14340 0 14340 -14400 0
-14400 0 0 -14340z m27930 0 l0 -13470 -13530 0 -13530 0 0 13470 0 13470
13530 0 13530 0 0 -13470z"/>
<path d="M10541 20710 c-2329 -1155 -4236 -2101 -4237 -2103 -2 -1 97 -204
219 -450 l222 -448 425 211 c1319 658 7627 3783 7635 3783 9 0 7935 -3742
8288 -3913 70 -34 130 -61 131 -59 2 2 26 54 54 114 28 61 123 263 211 449 89
187 160 340 158 341 -1 1 -1962 928 -4357 2060 -2395 1132 -4372 2066 -4392
2076 l-37 19 -19 -37 -20 -37 -23 47 -24 46 -4234 -2099z"/>
</g>
</svg>
